<?xml version="1.0" encoding="utf-8"?>
<!-- Generator: Adobe Illustrator 23.0.3, SVG Export Plug-In . SVG Version: 6.00 Build 0)  -->
<svg version="1.1" id="图层_1" xmlns="http://www.w3.org/2000/svg" xmlns:xlink="http://www.w3.org/1999/xlink" x="0px" y="0px"
	 viewBox="0 0 364.2 128" style="enable-background:new 0 0 364.2 128;" xml:space="preserve">
<style type="text/css">
	.st0{fill-rule:evenodd;clip-rule:evenodd;fill:#040302;}
	.st1{fill-rule:evenodd;clip-rule:evenodd;fill:#BE132D;}
</style>
<g>
	<g>
		<path class="st0" d="M45.3,23.8c0-0.6-0.2-1.2-0.4-1.9c-0.8-2.2-2.7-3.9-4.7-5.1c-1.7-1-3.6-1.7-5.5-2.3c-1.6-0.5-3.1-1.5-4.6-2.4
			C27,10.2,24.2,7.8,21.9,5c-0.3-0.3-0.5-0.6-0.8-0.9C20,2.7,18.9,0.4,16.9,0c-1.4-0.2-2.8,0.7-3.1,2c-0.2,1,0,2,0.5,2.8
			c1,1.6,2.5,3.2,3.7,4.6c1.3,1.5,2.8,2.9,4.3,4.1c3,2.5,6.5,4.7,10.1,6.3c2.3,1,5.9,1.2,6.2,4.4c0.2,1.9-1.2,3.6-2.6,4.8
			c-1.1,0.9-2.4,1.7-3.4,2.6s-2,2-2.8,3c-1.8,2.2-3,4.9-3,7.8c0,1,0.1,2,0.7,2.7s1.5,1.3,2.5,1.1c0.8-0.2,1.3-0.9,1.6-1.6
			c0.4-0.8,0.7-1.6,1-2.5c0.2-0.8,0.3-1.7,0.6-2.4c0.6-1.5,1.8-2.6,3-3.7c1.5-1.3,3-2.5,4.5-3.9C42.9,30.2,45.6,27.2,45.3,23.8z"/>
		<g transform="matrix(1,0,0,1,-8.08709,7.87463)">
			<path class="st0" d="M39.9,10.3c-0.2,0.2-0.4,0.3-0.7,0.5c-1.5,1.1-3.1,2.3-4.7,3.4c-3.1,2.2-6.3,4.4-9.5,6.5
				c-3,2-6.1,3.9-9.1,5.9c-1.3,0.8-2.6,1.6-4.1,1.7C9.9,28.4,8.2,27,8.1,25c-0.1-1.1,0.2-1.8,1-2.6c0.8-0.9,1.7-1.5,2.8-2.1
				c1.6-0.8,3.2-1.4,4.9-2c6.4-2.5,12.2-6.7,16.6-12.1c0.4-0.5,0.9-1.1,1.5-1.3c0.8-0.3,1.4,0.2,2,0.6c0.8,0.5,1.6,1.1,2.3,1.8
				c0.5,0.6,1,1.2,1.2,2C40.3,9.8,40.1,10,39.9,10.3z"/>
		</g>
		<g transform="matrix(1,0,0,1,-8.08709,7.87463)">
			<path class="st0" d="M38.1,36.2c0.6,0.1,1.1,0.4,1.5,0.9c0.7,0.9,0.7,1.9,0.7,3.2c-0.1,5.4-1,10.8-3.7,15.5
				c-1.2,2.1-2.8,4-4.3,5.8c-3.2,3.8-7.6,6.5-11.9,9.2c-0.9,0.6-1.9,1.2-2.9,1c-1.3-0.2-2.2-1.6-2.1-2.9s1-2.5,2-3.3s2.3-1.4,3.4-2
				c4.1-2.2,7.7-5.5,10.1-9.6s3.7-8.7,3.8-13.4c0-1.3,0-3.3,1.3-4.1C36.6,36.2,37.4,36.1,38.1,36.2z"/>
		</g>
		<g transform="matrix(1,0,0,1,-8.08709,7.87463)">
			<path class="st0" d="M39.5,42.5c0.4,0.6,0.5,1.4,0.5,2.1c0,0.9-0.1,1.8-0.2,2.8c-0.5,6.3,2.8,12.8,8.7,15.5c1,0.4,2,0.8,2.9,1.3
				s1.8,1.2,2.2,2.2s0.3,2.2-0.4,2.9c-0.5,0.5-1.3,0.7-2,0.7s-1.5-0.3-2.1-0.6c-5.4-2.1-10.3-5.9-12.6-11.4c-1.7-3.8-2-9.7-1.2-13.8
				c0.2-0.9,0.4-1.7,1.1-2.3c0.7-0.5,1.6-0.7,2.4-0.3C39,41.9,39.3,42.2,39.5,42.5z"/>
		</g>
		<g transform="matrix(1,0,0,1,-8.08709,7.87463)">
			<path class="st0" d="M50.2,53.2c-0.1-1.8-0.1-3.7-0.6-5.5c-1-3.5-4.2-5.3-7.3-7c-1.8-1-3.6-1.9-5.3-3c-0.4-0.2-0.7-0.5-1-0.8
				c-0.5-0.6-0.6-1.4-0.3-2.1c0.3-0.7,0.9-1.2,1.6-1.5c1-0.4,2.2-0.3,3.2,0.1c0.5,0.2,1,0.6,1.6,0.8c0.6,0.3,1.2,0.5,1.8,0.8
				c0.5,0.2,1,0.4,1.6,0.6c2.2,0.7,4.4,1.6,6.2,2.6c2,1.1,3.5,2.7,4.4,4.8c1.8,4.2,1.4,9.1,1.3,13.6c-0.2,10.8,0.1,21.8,1.2,32.6
				c0.7,7.1,2.5,13.9,3.3,21c0.2,1.9,0.5,4.2,0.4,6.1c-0.1,1.1-0.5,2.2-1.3,3c-2.2,2.1-5.3,0.3-6.6-1.9c-2.6-4.4-2.4-9.3-2.6-14.2
				c-0.2-6.1-0.4-12.2-0.5-18.3"/>
		</g>
		<path class="st0" d="M31.2,40.8c-0.5-0.4-1.2-0.6-1.9-0.5c-1.4,0.2-2.2,1.4-3.3,1.8c-1.6,0.6-3.1,1.1-4.8,1.6
			c-2.5,0.8-5.1,1.3-7.5,2.5c-3.2,1.5-5.4,4.3-6.8,7.5C5.5,57,5,60.8,4.8,64.5c-0.3,5,0.1,9.9,0.2,14.9c0.1,7.2-0.4,14.5-1.3,21.7
			c-0.5,3.7-1.1,7.3-1.8,10.9c-0.7,3.4-2,6.7-1.1,10.2c0.4,1.6,1.4,3.1,2.8,3.8c1.5,0.7,2.6,0.4,3.9-0.5c3.7-2.4,3.9-8,4.2-12
			c0.6-8.2,1.4-16.5,1.8-24.8c0.1-1.6,0.1-3.1,0.1-4.7c0.1-5.1-0.1-10.3-0.4-15.4c-0.3-4.5-0.8-9,1.2-13.2c0.9-1.9,2.3-3.6,4.1-4.7
			c1.9-1.2,3.4-1.6,5.5-2.2c1.7-0.5,3.5-0.8,5.2-1.7c1.6-0.8,3.5-2.4,3.1-4.4C32.2,41.8,31.8,41.2,31.2,40.8z"/>
		<g transform="matrix(1,0,0,1,-8.08709,7.87463)">
			<path class="st0" d="M35.7,70.3c0.5,0.2,1,0.4,1.4,0.8c0.8,0.8,1.1,2.1,1,3.2s-0.6,2.2-1.1,3.3c-3.3,7.3-7.7,14.5-14.2,19.3
				c-0.9,0.6-1.8,1.2-2.8,1.5s-2.2,0.3-3.1-0.2s-1.6-1.6-1.4-2.6c0.2-1.4,1.7-2.2,3-2.9c2.5-1.4,4.6-3.3,6.5-5.5s3.4-4.7,4.7-7.2
				c0.7-1.4,1.3-2.7,1.8-4.2c0.4-1.1,0.9-2.2,1.3-3.2c0.3-0.8,0.5-1.8,1.5-2.2C34.6,70.1,35.1,70.1,35.7,70.3z"/>
		</g>
		<g transform="matrix(1,0,0,1,-8.08709,7.87463)">
			<path class="st0" d="M36.1,69.2c1.6,0.3,2.9,2.2,3.6,3.6c0.7,1.4,1.2,2.8,1.8,4.3c2.3,5.5,5.9,11.7,10.9,15.2
				c1.2,0.9,2.6,1.6,3.5,2.9c0.9,1.2,1,3.2-0.3,4.1c-0.6,0.5-1.5,0.5-2.3,0.3s-1.5-0.6-2.1-1c-4.4-2.8-7.8-6.9-10.6-11.3
				c-1.5-2.4-2.9-5-4.1-7.6c-1-2-1.9-4-2.8-6c-0.3-0.6-0.6-1.2-0.6-1.9c0-0.7,0.4-1.4,0.9-1.9C34.7,69.2,35.4,69.1,36.1,69.2z"/>
		</g>
	</g>
	<g>
		<g transform="matrix(1,0,0,1,-8.08709,7.87463)">
			<path class="st1" d="M80.3-6.1C81-6,81.7-5.6,82.2-4.9C82.7-4,82.8-3,82.6-2.1c-0.2,1.8-0.8,3.5-0.6,5.3C82.4,5,83.1,6.7,84.4,8
				c1.4,1.5,3.4,2.4,5.4,2.9c1.6,0.4,3.3,0.6,4.9,0.9c1.9,0.3,3.8,0.8,5.6,1.6c0.7,0.3,1.3,0.6,1.9,1c1.8,1.3,3.3,3.1,3.9,5.3
				c0.4,1.4,0.4,2.9,0.1,4.4c-0.6,2.2-2,4-3.5,5.6c-2.4,2.7-5.5,4.8-8.2,7.2c-1.1,1.1-2.2,2.2-3.3,3.3c-0.7,0.8-1.4,1.6-2.3,2.1
				c-1,0.6-2.2,0.6-3.1-0.1c-0.9-0.7-1.3-1.9-1-3c0.3-0.9,1-1.6,1.6-2.3c2-1.9,3.9-4,5.9-5.8c2.1-1.8,4.2-3.5,6.2-5.4
				c1.1-1,2.2-2.2,2.3-3.7c0.1-1.4-0.9-2.7-2.2-3.4c-2.5-1.5-5.8-1.4-8.6-2.1c-2.8-0.6-5.8-1.3-8.1-3c-2-1.6-3.6-3.7-4.5-6.1
				c-0.6-1.6-1-3.2-1-4.9c-0.1-1.7,0.3-3.4,0.6-5.1c0.1-0.8,0.2-1.6,0.6-2.3C78.1-5.8,79.3-6.2,80.3-6.1z"/>
		</g>
		<g transform="matrix(1,0,0,1,-8.08709,7.87463)">
			<path class="st1" d="M87.2,11c1.1,0.1,2.3,0.9,2.8,1.8c0.5,0.9,0.5,2.4-0.5,3.9c-0.8,1.3-2,2.6-3.2,3.6c-1.4,1.2-2.8,2.3-4.2,3.4
				c-3.5,3-7,6.1-10.9,8.5c-1.3,0.8-2.6,1.5-4.2,1.4c-1.3-0.1-2.6-0.9-2.9-2.2c-0.4-1.5,0.7-3,1.8-4.1c1.8-1.9,3.9-3.5,6.1-4.9
				c2.6-1.5,5.3-2.6,7.8-4.3c2.1-1.4,4-3.2,5-5.5c0.2-0.5,0.5-1.1,1.1-1.4C86.4,11,86.8,11,87.2,11z"/>
		</g>
	</g>
	<g>
		<path class="st0" d="M103,53.7c0-0.6-0.2-1.2-0.7-1.8c-0.8-0.8-2.2-1.1-3.3-0.8c-2.2,0.7-2.9,3.4-3.5,5.3c-0.8,2.5-1.3,5-2.7,7.3
			c-1.1,1.8-2.6,3.3-4.5,4.2c-2.1,1-4.8,1.2-7.1,1.1c-3.2-0.1-6.4-1-9.3-2.4c-1.8-0.9-3.5-2-4.7-3.7c-1.1-1.6-1.7-3.6-1.5-5.5
			c0.1-0.8,0.2-1.6,0.2-2.4c0-1.7-1.2-3.2-3-3.1c-0.9,0.1-1.7,0.6-2.2,1.3c-0.5,0.8-0.4,1.6-0.5,2.4c-0.4,2.5-0.2,5,0.7,7.4
			c2.3,6,8.8,10,14.9,11c3.5,0.6,7.1,0.8,10.7,0.2c3.3-0.6,6.9-1.9,9.3-4.3s4.1-5.5,5.3-8.7c0.6-1.6,1.1-3.3,1.4-5
			C102.7,55.4,103,54.5,103,53.7z"/>
		<g transform="matrix(1,0,0,1,-8.08709,7.87463)">
			<path class="st0" d="M87.2,44.1c1.7,0.1,3.3,2,4.2,3.3c1.8,2.7,2.5,5.8,2.8,8.9c0.3,3.5,0,6.9,0.1,10.3c0,3.5,0.2,7.1,0.6,10.6
				c0.4,4.2,0.6,8.4,0.9,12.5c0.4,4.7,0.6,9.5,0.4,14.3c-0.2,3.9-0.1,8.4-2.2,11.8c-0.5,0.8-1.1,1.6-2,2s-1.8,0.7-2.7,0.3
				c-1.6-0.6-2.3-2.4-2.6-4.1c-1.1-5.5-0.3-11.1,0-16.7c0.4-5.9,0.7-11.7,1-17.6c0.3-6.4,0.6-12.8,0.1-19.2c-0.2-3.1-0.4-6.7-2-9.5
				c-0.4-0.8-1-1.5-1.3-2.3c-0.5-1.4-0.1-3.4,1.2-4.3C86.1,44.2,86.6,44.1,87.2,44.1z"/>
		</g>
		<g transform="matrix(1,0,0,1,-8.08709,7.87463)">
			<path class="st0" d="M66.3,76.3c0.8,0.1,1.6,0.3,2.2,0.4c3.6,0.5,7.2,0.6,10.8,0.6c2.2,0,4.3,0,6.5,0c3.7,0,7.4,0.2,11.1-0.1
				c2.2-0.1,4.3-0.4,6.4-0.7c3.3-0.5,6.4-1.5,9.7-1.4c1.3,0.1,2.7,0.3,3.5,1.2c0.9,1,1,2.6,0.3,3.8c-0.8,1.4-2.3,2-3.8,2.2
				c-2,0.2-4,0.3-6,0.4c-4,0.3-8,0.6-12.1,0.9c-2.2,0-4.5,0.3-6.8,0.5c-5.5,0.4-11,1.1-16.5,0.6c-2.9-0.3-5.8-1-8.4-2.6
				c-0.9-0.6-1.8-1.2-2.3-2.2c-0.6-1.2-0.3-2.6,0.8-3.3C63.2,75.8,65,76.1,66.3,76.3z"/>
		</g>
	</g>
</g>
<g>
	<path d="M155.1,93.5c-3.4-1-6.1-2.5-8.1-4.3c-0.9-0.8-1.4-1.8-1.4-3c0-0.9,0.2-1.6,0.7-2.3c0.5-0.6,1.1-0.9,1.8-0.9
		c0.7,0,1.5,0.3,2.5,1c4.4,3.3,9.4,4.9,15,4.9c3.9,0,7-0.7,9.1-2.2c2.1-1.5,3.2-3.6,3.2-6.4c0-2.2-1-3.8-3-4.9
		c-2-1.1-5.1-2.1-9.5-3.1c-4.1-0.9-7.6-1.9-10.2-3c-2.7-1.1-4.8-2.7-6.3-4.6c-1.5-1.9-2.3-4.4-2.3-7.4c0-3,0.8-5.7,2.5-8
		c1.7-2.3,4-4.2,6.9-5.5s6.3-2,10.1-2c3.5,0,6.7,0.5,9.7,1.5c3,1,5.5,2.4,7.6,4.4c1,0.8,1.5,1.9,1.5,3c0,0.8-0.3,1.6-0.8,2.2
		c-0.5,0.6-1.1,1-1.8,1c-0.6,0-1.5-0.3-2.4-1c-2.3-1.7-4.4-3-6.4-3.7c-2-0.8-4.4-1.1-7.2-1.1c-3.8,0-6.8,0.8-8.9,2.3
		c-2.1,1.6-3.2,3.7-3.2,6.5c0,2.4,0.9,4.2,2.8,5.4c1.9,1.2,4.9,2.3,9,3.3c4.3,1,7.9,2,10.5,3.1c2.7,1.1,4.8,2.5,6.4,4.4
		c1.6,1.9,2.4,4.2,2.4,7.1c0,3-0.8,5.6-2.5,7.9c-1.7,2.3-4,4.1-7,5.3c-3,1.3-6.4,1.9-10.3,1.9C162.1,95,158.5,94.5,155.1,93.5z"/>
	<path d="M200.4,92.7c-2.7-1.5-4.8-3.7-6.2-6.6c-1.5-2.8-2.2-6.1-2.2-9.9c0-3.8,0.7-7.1,2.2-10c1.5-2.8,3.5-5,6.2-6.6
		c2.7-1.5,5.8-2.3,9.4-2.3s6.7,0.8,9.4,2.3c2.7,1.5,4.8,3.7,6.2,6.6c1.5,2.8,2.2,6.2,2.2,10c0,3.8-0.7,7-2.2,9.9
		c-1.5,2.8-3.5,5-6.2,6.6c-2.7,1.5-5.8,2.3-9.4,2.3S203.1,94.2,200.4,92.7z M217.4,85.8c1.8-2.2,2.6-5.4,2.6-9.5
		c0-4.1-0.9-7.3-2.7-9.5c-1.8-2.2-4.3-3.3-7.6-3.3c-3.3,0-5.8,1.1-7.6,3.3c-1.8,2.2-2.7,5.4-2.7,9.5c0,4.2,0.9,7.4,2.6,9.5
		c1.8,2.2,4.3,3.3,7.6,3.3C213.1,89,215.6,87.9,217.4,85.8z"/>
	<path d="M236.9,93.9c-0.7-0.6-1.1-1.5-1.1-2.7V45.5c0-1.2,0.4-2.1,1.1-2.7c0.7-0.6,1.6-0.9,2.7-0.9c1.1,0,2,0.3,2.7,0.9
		c0.7,0.6,1,1.5,1,2.7v45.7c0,1.2-0.3,2.1-1,2.7c-0.7,0.6-1.6,0.9-2.7,0.9C238.5,94.8,237.6,94.5,236.9,93.9z"/>
	<path d="M280.7,58.2c0.6-0.3,1.2-0.5,1.8-0.5c0.9,0,1.8,0.3,2.5,1c0.7,0.6,1.1,1.4,1.1,2.3c0,0.5-0.1,1-0.3,1.4l-14.1,30
		c-0.3,0.8-0.9,1.4-1.6,1.8c-0.7,0.4-1.5,0.6-2.3,0.6c-0.8,0-1.5-0.2-2.3-0.6c-0.7-0.4-1.2-1-1.6-1.8l-14.1-30
		c-0.2-0.4-0.3-0.9-0.3-1.4c0-0.9,0.4-1.7,1.2-2.3c0.8-0.6,1.7-1,2.7-1c1.4,0,2.5,0.7,3.2,2.1L268,85.2l11.4-25.4
		C279.7,59,280.2,58.5,280.7,58.2z"/>
	<path d="M321.7,86.1c0.4,0.5,0.7,1.2,0.7,2.1c0,1.4-0.9,2.6-2.7,3.6c-1.7,1-3.6,1.8-5.7,2.3s-4,0.8-5.9,0.8c-5.7,0-10.2-1.7-13.5-5
		c-3.3-3.3-5-7.9-5-13.7c0-3.7,0.7-7,2.2-9.8c1.5-2.9,3.5-5.1,6.1-6.7c2.6-1.6,5.6-2.4,9-2.4c4.8,0,8.7,1.6,11.5,4.7
		c2.8,3.1,4.2,7.3,4.2,12.6c0,2-0.9,3-2.7,3h-22.9c0.5,7.6,4.2,11.5,11,11.5c1.8,0,3.4-0.2,4.7-0.7c1.3-0.5,2.7-1.1,4.2-1.9
		c0.1-0.1,0.6-0.3,1.2-0.6c0.7-0.3,1.2-0.5,1.7-0.5C320.7,85.3,321.3,85.6,321.7,86.1z M300.2,65.6c-1.7,1.8-2.8,4.4-3.1,7.7h19.1
		c-0.1-3.4-1-5.9-2.6-7.7c-1.6-1.8-3.7-2.7-6.6-2.7C304.3,62.9,302,63.8,300.2,65.6z"/>
	<path d="M363.2,42.8c0.7,0.6,1,1.5,1,2.6v45.7c0,1.1-0.3,2-1,2.7c-0.7,0.6-1.6,1-2.7,1c-1.1,0-2-0.3-2.7-1c-0.7-0.6-1-1.5-1-2.7v-3
		c-1.1,2.2-2.7,3.8-4.7,5c-2.1,1.2-4.5,1.7-7.2,1.7c-3.1,0-5.9-0.8-8.3-2.4c-2.4-1.6-4.3-3.8-5.7-6.7c-1.4-2.9-2-6.1-2-9.8
		c0-3.7,0.7-7,2-9.8c1.4-2.8,3.2-5,5.7-6.5c2.4-1.5,5.2-2.3,8.4-2.3c2.7,0,5.1,0.6,7.1,1.7c2,1.2,3.6,2.8,4.7,4.9V45.3
		c0-1,0.3-1.9,1-2.5c0.7-0.6,1.6-0.9,2.7-0.9C361.6,41.9,362.5,42.2,363.2,42.8z M354.1,85.7c1.8-2.2,2.7-5.4,2.7-9.5
		c0-4.1-0.9-7.3-2.6-9.5c-1.8-2.2-4.3-3.3-7.5-3.3c-3.3,0-5.8,1.1-7.6,3.3c-1.8,2.2-2.7,5.3-2.7,9.4c0,4,0.9,7.2,2.7,9.5
		c1.8,2.3,4.3,3.4,7.6,3.4S352.4,87.9,354.1,85.7z"/>
</g>
</svg>
