<?xml version="1.0" encoding="utf-8"?>
<!-- Generator: Adobe Illustrator 23.0.1, SVG Export Plug-In . SVG Version: 6.00 Build 0)  -->
<svg version="1.1" id="图层_1" xmlns="http://www.w3.org/2000/svg" xmlns:xlink="http://www.w3.org/1999/xlink" x="0px" y="0px"
	 viewBox="0 0 364.2 128" style="enable-background:new 0 0 364.2 128;" xml:space="preserve">
<style type="text/css">
	.st0{fill-rule:evenodd;clip-rule:evenodd;fill:#040302;}
	.st1{fill-rule:evenodd;clip-rule:evenodd;fill:#BE132D;}
	.st2{fill:#040302;}
</style>
<g>
	<g>
		<g>
			<path class="st0" d="M45.3,23.8c0-0.6-0.2-1.2-0.4-1.9c-0.8-2.2-2.7-3.9-4.7-5.1c-1.7-1-3.6-1.7-5.5-2.3
				c-1.6-0.5-3.1-1.5-4.6-2.4c-3.1-1.9-5.9-4.3-8.2-7.1c-0.3-0.3-0.5-0.6-0.8-0.9C20,2.7,18.9,0.4,16.9,0c-1.4-0.2-2.8,0.7-3.1,2
				C13.6,3,13.8,4,14.3,4.8c1,1.6,2.5,3.2,3.7,4.6c1.3,1.5,2.8,2.9,4.3,4.1c3,2.5,6.5,4.7,10.1,6.3c2.3,1,5.9,1.2,6.2,4.4
				c0.2,1.9-1.2,3.6-2.6,4.8c-1.1,0.9-2.4,1.7-3.4,2.6c-1,0.9-2,2-2.8,3c-1.8,2.2-3,4.9-3,7.8c0,1,0.1,2,0.7,2.7s1.5,1.3,2.5,1.1
				c0.8-0.2,1.3-0.9,1.6-1.6c0.4-0.8,0.7-1.6,1-2.5c0.2-0.8,0.3-1.7,0.6-2.4c0.6-1.5,1.8-2.6,3-3.7c1.5-1.3,3-2.5,4.5-3.9
				C42.9,30.2,45.6,27.2,45.3,23.8z"/>
			<g transform="matrix(1,0,0,1,-8.08709,7.87463)">
				<path class="st0" d="M39.9,10.3c-0.2,0.2-0.4,0.3-0.7,0.5c-1.5,1.1-3.1,2.3-4.7,3.4c-3.1,2.2-6.3,4.4-9.5,6.5
					c-3,2-6.1,3.9-9.1,5.9c-1.3,0.8-2.6,1.6-4.1,1.7C9.9,28.4,8.2,27,8.1,25c-0.1-1.1,0.2-1.8,1-2.6c0.8-0.9,1.7-1.5,2.8-2.1
					c1.6-0.8,3.2-1.4,4.9-2c6.4-2.5,12.2-6.7,16.6-12.1c0.4-0.5,0.9-1.1,1.5-1.3c0.8-0.3,1.4,0.2,2,0.6c0.8,0.5,1.6,1.1,2.3,1.8
					c0.5,0.6,1,1.2,1.2,2C40.3,9.8,40.1,10,39.9,10.3z"/>
			</g>
			<g transform="matrix(1,0,0,1,-8.08709,7.87463)">
				<path class="st0" d="M38.1,36.2c0.6,0.1,1.1,0.4,1.5,0.9c0.7,0.9,0.7,1.9,0.7,3.2c-0.1,5.4-1,10.8-3.7,15.5
					c-1.2,2.1-2.8,4-4.3,5.8c-3.2,3.8-7.6,6.5-11.9,9.2c-0.9,0.6-1.9,1.2-2.9,1c-1.3-0.2-2.2-1.6-2.1-2.9s1-2.5,2-3.3
					c1-0.8,2.3-1.4,3.4-2c4.1-2.2,7.7-5.5,10.1-9.6s3.7-8.7,3.8-13.4c0-1.3,0-3.3,1.3-4.1C36.6,36.2,37.4,36.1,38.1,36.2z"/>
			</g>
			<g transform="matrix(1,0,0,1,-8.08709,7.87463)">
				<path class="st0" d="M39.5,42.5c0.4,0.6,0.5,1.4,0.5,2.1c0,0.9-0.1,1.8-0.2,2.8c-0.5,6.3,2.8,12.8,8.7,15.5c1,0.4,2,0.8,2.9,1.3
					c0.9,0.5,1.8,1.2,2.2,2.2c0.4,1,0.3,2.2-0.4,2.9c-0.5,0.5-1.3,0.7-2,0.7c-0.7,0-1.5-0.3-2.1-0.6c-5.4-2.1-10.3-5.9-12.6-11.4
					c-1.7-3.8-2-9.7-1.2-13.8c0.2-0.9,0.4-1.7,1.1-2.3c0.7-0.5,1.6-0.7,2.4-0.3C39,41.9,39.3,42.2,39.5,42.5z"/>
			</g>
			<g transform="matrix(1,0,0,1,-8.08709,7.87463)">
				<path class="st0" d="M50.2,53.2c-0.1-1.8-0.1-3.7-0.6-5.5c-1-3.5-4.2-5.3-7.3-7c-1.8-1-3.6-1.9-5.3-3c-0.4-0.2-0.7-0.5-1-0.8
					c-0.5-0.6-0.6-1.4-0.3-2.1c0.3-0.7,0.9-1.2,1.6-1.5c1-0.4,2.2-0.3,3.2,0.1c0.5,0.2,1,0.6,1.6,0.8c0.6,0.3,1.2,0.5,1.8,0.8
					c0.5,0.2,1,0.4,1.6,0.6c2.2,0.7,4.4,1.6,6.2,2.6c2,1.1,3.5,2.7,4.4,4.8c1.8,4.2,1.4,9.1,1.3,13.6c-0.2,10.8,0.1,21.8,1.2,32.6
					c0.7,7.1,2.5,13.9,3.3,21c0.2,1.9,0.5,4.2,0.4,6.1c-0.1,1.1-0.5,2.2-1.3,3c-2.2,2.1-5.3,0.3-6.6-1.9c-2.6-4.4-2.4-9.3-2.6-14.2
					c-0.2-6.1-0.4-12.2-0.5-18.3"/>
			</g>
			<path class="st0" d="M31.2,40.8c-0.5-0.4-1.2-0.6-1.9-0.5c-1.4,0.2-2.2,1.4-3.3,1.8c-1.6,0.6-3.1,1.1-4.8,1.6
				c-2.5,0.8-5.1,1.3-7.5,2.5c-3.2,1.5-5.4,4.3-6.8,7.5C5.5,57,5,60.8,4.8,64.5c-0.3,5,0.1,9.9,0.2,14.9c0.1,7.2-0.4,14.5-1.3,21.7
				c-0.5,3.7-1.1,7.3-1.8,10.9c-0.7,3.4-2,6.7-1.1,10.2c0.4,1.6,1.4,3.1,2.8,3.8c1.5,0.7,2.6,0.4,3.9-0.5c3.7-2.4,3.9-8,4.2-12
				c0.6-8.2,1.4-16.5,1.8-24.8c0.1-1.6,0.1-3.1,0.1-4.7c0.1-5.1-0.1-10.3-0.4-15.4c-0.3-4.5-0.8-9,1.2-13.2c0.9-1.9,2.3-3.6,4.1-4.7
				c1.9-1.2,3.4-1.6,5.5-2.2c1.7-0.5,3.5-0.8,5.2-1.7c1.6-0.8,3.5-2.4,3.1-4.4C32.2,41.8,31.8,41.2,31.2,40.8z"/>
			<g transform="matrix(1,0,0,1,-8.08709,7.87463)">
				<path class="st0" d="M35.7,70.3c0.5,0.2,1,0.4,1.4,0.8c0.8,0.8,1.1,2.1,1,3.2s-0.6,2.2-1.1,3.3c-3.3,7.3-7.7,14.5-14.2,19.3
					c-0.9,0.6-1.8,1.2-2.8,1.5c-1,0.3-2.2,0.3-3.1-0.2c-0.9-0.5-1.6-1.6-1.4-2.6c0.2-1.4,1.7-2.2,3-2.9c2.5-1.4,4.6-3.3,6.5-5.5
					c1.9-2.2,3.4-4.7,4.7-7.2c0.7-1.4,1.3-2.7,1.8-4.2c0.4-1.1,0.9-2.2,1.3-3.2c0.3-0.8,0.5-1.8,1.5-2.2
					C34.6,70.1,35.1,70.1,35.7,70.3z"/>
			</g>
			<g transform="matrix(1,0,0,1,-8.08709,7.87463)">
				<path class="st0" d="M36.1,69.2c1.6,0.3,2.9,2.2,3.6,3.6c0.7,1.4,1.2,2.8,1.8,4.3c2.3,5.5,5.9,11.7,10.9,15.2
					c1.2,0.9,2.6,1.6,3.5,2.9c0.9,1.2,1,3.2-0.3,4.1c-0.6,0.5-1.5,0.5-2.3,0.3s-1.5-0.6-2.1-1c-4.4-2.8-7.8-6.9-10.6-11.3
					c-1.5-2.4-2.9-5-4.1-7.6c-1-2-1.9-4-2.8-6c-0.3-0.6-0.6-1.2-0.6-1.9c0-0.7,0.4-1.4,0.9-1.9C34.7,69.2,35.4,69.1,36.1,69.2z"/>
			</g>
		</g>
		<g>
			<g transform="matrix(1,0,0,1,-8.08709,7.87463)">
				<path class="st1" d="M80.3-6.1c0.7,0.1,1.4,0.5,1.9,1.2C82.7-4,82.8-3,82.6-2.1c-0.2,1.8-0.8,3.5-0.6,5.3
					C82.4,5,83.1,6.7,84.4,8c1.4,1.5,3.4,2.4,5.4,2.9c1.6,0.4,3.3,0.6,4.9,0.9c1.9,0.3,3.8,0.8,5.6,1.6c0.7,0.3,1.3,0.6,1.9,1
					c1.8,1.3,3.3,3.1,3.9,5.3c0.4,1.4,0.4,2.9,0.1,4.4c-0.6,2.2-2,4-3.5,5.6c-2.4,2.7-5.5,4.8-8.2,7.2c-1.1,1.1-2.2,2.2-3.3,3.3
					c-0.7,0.8-1.4,1.6-2.3,2.1c-1,0.6-2.2,0.6-3.1-0.1c-0.9-0.7-1.3-1.9-1-3c0.3-0.9,1-1.6,1.6-2.3c2-1.9,3.9-4,5.9-5.8
					c2.1-1.8,4.2-3.5,6.2-5.4c1.1-1,2.2-2.2,2.3-3.7c0.1-1.4-0.9-2.7-2.2-3.4c-2.5-1.5-5.8-1.4-8.6-2.1c-2.8-0.6-5.8-1.3-8.1-3
					c-2-1.6-3.6-3.7-4.5-6.1c-0.6-1.6-1-3.2-1-4.9c-0.1-1.7,0.3-3.4,0.6-5.1c0.1-0.8,0.2-1.6,0.6-2.3C78.1-5.8,79.3-6.2,80.3-6.1z"
					/>
			</g>
			<g transform="matrix(1,0,0,1,-8.08709,7.87463)">
				<path class="st1" d="M87.2,11c1.1,0.1,2.3,0.9,2.8,1.8c0.5,0.9,0.5,2.4-0.5,3.9c-0.8,1.3-2,2.6-3.2,3.6
					c-1.4,1.2-2.8,2.3-4.2,3.4c-3.5,3-7,6.1-10.9,8.5c-1.3,0.8-2.6,1.5-4.2,1.4c-1.3-0.1-2.6-0.9-2.9-2.2c-0.4-1.5,0.7-3,1.8-4.1
					c1.8-1.9,3.9-3.5,6.1-4.9c2.6-1.5,5.3-2.6,7.8-4.3c2.1-1.4,4-3.2,5-5.5c0.2-0.5,0.5-1.1,1.1-1.4C86.4,11,86.8,11,87.2,11z"/>
			</g>
		</g>
		<g>
			<path class="st0" d="M103,53.7c0-0.6-0.2-1.2-0.7-1.8c-0.8-0.8-2.2-1.1-3.3-0.8c-2.2,0.7-2.9,3.4-3.5,5.3c-0.8,2.5-1.3,5-2.7,7.3
				c-1.1,1.8-2.6,3.3-4.5,4.2c-2.1,1-4.8,1.2-7.1,1.1c-3.2-0.1-6.4-1-9.3-2.4c-1.8-0.9-3.5-2-4.7-3.7c-1.1-1.6-1.7-3.6-1.5-5.5
				c0.1-0.8,0.2-1.6,0.2-2.4c0-1.7-1.2-3.2-3-3.1c-0.9,0.1-1.7,0.6-2.2,1.3c-0.5,0.8-0.4,1.6-0.5,2.4c-0.4,2.5-0.2,5,0.7,7.4
				c2.3,6,8.8,10,14.9,11c3.5,0.6,7.1,0.8,10.7,0.2c3.3-0.6,6.9-1.9,9.3-4.3c2.4-2.4,4.1-5.5,5.3-8.7c0.6-1.6,1.1-3.3,1.4-5
				C102.7,55.4,103,54.5,103,53.7z"/>
			<g transform="matrix(1,0,0,1,-8.08709,7.87463)">
				<path class="st0" d="M87.2,44.1c1.7,0.1,3.3,2,4.2,3.3c1.8,2.7,2.5,5.8,2.8,8.9c0.3,3.5,0,6.9,0.1,10.3c0,3.5,0.2,7.1,0.6,10.6
					c0.4,4.2,0.6,8.4,0.9,12.5c0.4,4.7,0.6,9.5,0.4,14.3c-0.2,3.9-0.1,8.4-2.2,11.8c-0.5,0.8-1.1,1.6-2,2s-1.8,0.7-2.7,0.3
					c-1.6-0.6-2.3-2.4-2.6-4.1c-1.1-5.5-0.3-11.1,0-16.7c0.4-5.9,0.7-11.7,1-17.6c0.3-6.4,0.6-12.8,0.1-19.2c-0.2-3.1-0.4-6.7-2-9.5
					c-0.4-0.8-1-1.5-1.3-2.3c-0.5-1.4-0.1-3.4,1.2-4.3C86.1,44.2,86.6,44.1,87.2,44.1z"/>
			</g>
			<g transform="matrix(1,0,0,1,-8.08709,7.87463)">
				<path class="st0" d="M66.3,76.3c0.8,0.1,1.6,0.3,2.2,0.4c3.6,0.5,7.2,0.6,10.8,0.6c2.2,0,4.3,0,6.5,0c3.7,0,7.4,0.2,11.1-0.1
					c2.2-0.1,4.3-0.4,6.4-0.7c3.3-0.5,6.4-1.5,9.7-1.4c1.3,0.1,2.7,0.3,3.5,1.2c0.9,1,1,2.6,0.3,3.8c-0.8,1.4-2.3,2-3.8,2.2
					c-2,0.2-4,0.3-6,0.4c-4,0.3-8,0.6-12.1,0.9c-2.2,0-4.5,0.3-6.8,0.5c-5.5,0.4-11,1.1-16.5,0.6c-2.9-0.3-5.8-1-8.4-2.6
					c-0.9-0.6-1.8-1.2-2.3-2.2c-0.6-1.2-0.3-2.6,0.8-3.3C63.2,75.8,65,76.1,66.3,76.3z"/>
			</g>
		</g>
	</g>
	<g>
		<path class="st2" d="M172.1,79.9c0-4.8-2.8-7-9.1-9.5l-3-1.2c-8-3.2-13.3-7.7-13.3-15.6c0-8.9,7.4-14.2,17.4-14.2
			c5.2,0,9.4,1.6,12.8,4l-0.5,10.1h-5l-2.1-11.5l5.1,2.5v3.8c-3.8-3.5-6.6-4.9-10.7-4.9c-5.7,0-10,2.9-10,8.4c0,4.7,3,7.4,8.4,9.5
			l3.1,1.2c10,4,13.9,8.4,13.9,15.6c0,9-7.4,14.7-18.4,14.7c-5.7,0-11.4-1.7-15.1-4l0.5-10.8h5l2,11.9l-5.1-2.1V84
			c4.8,3.3,7.4,4.8,12.6,4.8C167.6,88.8,172.1,85.5,172.1,79.9z"/>
		<path class="st2" d="M185.3,73.5c0-12.5,8.6-19.3,17.8-19.3c9,0,17.8,6.7,17.8,19.3s-8.6,19.1-17.8,19.1
			C193.8,92.6,185.3,86,185.3,73.5z M212.9,73.5c0-10.3-3.6-15.8-9.9-15.8c-6.4,0-9.9,5.5-9.9,15.8c0,10.3,3.5,15.5,9.9,15.5
			C209.3,89.1,212.9,83.9,212.9,73.5z"/>
		<path class="st2" d="M237.7,35.2l1.1,0.6l-0.3,10.8v28.9c0,5.3,0.1,10.7,0.2,16h-7.6c0.1-5.3,0.2-10.7,0.2-16V42.2l-6.1-0.8v-2.8
			L237.7,35.2z M244.5,88.8v2.8h-19.1v-2.8l8.4-1.5h2.2L244.5,88.8z"/>
		<path class="st2" d="M253,59.5l-7.4-1.3v-3h18.9v3l-8.9,1.3H253z M256.4,55.2L268,85.7l-3.5,4.7l12.2-35.1h4.3l-14,36.7h-3.6
			l-15.4-36.7L256.4,55.2L256.4,55.2z M276.7,59.5l-7.4-1.3v-3h14.5v3l-5.5,1.3H276.7z"/>
		<path class="st2" d="M318.4,69.1c0,1.7-0.2,3.2-0.5,4.2h-28.5V70h17.5c3.7,0,4.5-1.7,4.5-4.1c0-4.5-3.5-8.2-7.9-8.2
			c-4.6,0-9.8,4-9.8,15c0,9.6,4.8,14.7,12.1,14.7c4.8,0,7.8-2.1,10.5-5.2l1.9,1.6c-2.8,5.5-7.8,8.9-14.8,8.9
			c-10.4,0-17.2-7.1-17.2-18.9c0-11.9,8.3-19.5,17.8-19.5C312.2,54.2,318.4,59.8,318.4,69.1z"/>
		<path class="st2" d="M343.1,88c3.9,0,6.5-1.9,9.8-6.2l0.7,1.9c-3,5.7-6.8,8.9-12.9,8.9c-9.2,0-15.5-7.6-15.5-18.9
			c0-11.8,7.1-19.5,16.4-19.5c4.7,0,8.4,2.1,12.3,8.2l-0.8,1.9c-4.2-4.2-7.1-5.5-10-5.5c-5.5,0-10.3,4.5-10.3,14.8
			C332.8,83.4,337.1,88,343.1,88z M364.2,88.8v2.8L352,92.3l-0.8-7.6V61.8l0.3-1V42.2l-6.4-0.8v-2.8l12.5-3.4l1.1,0.6l-0.3,10.8
			v44.9l-1.9-4.2L364.2,88.8z"/>
	</g>
</g>
</svg>
