<?xml version="1.0" encoding="utf-8"?>
<!-- Generator: Adobe Illustrator 23.0.1, SVG Export Plug-In . SVG Version: 6.00 Build 0)  -->
<svg version="1.1" id="图层_1" xmlns="http://www.w3.org/2000/svg" xmlns:xlink="http://www.w3.org/1999/xlink" x="0px" y="0px"
	 viewBox="0 0 109.26 128" style="enable-background:new 0 0 109.26 128;" xml:space="preserve">
<style type="text/css">
	.st0{fill-rule:evenodd;clip-rule:evenodd;fill:#040302;}
	.st1{fill-rule:evenodd;clip-rule:evenodd;fill:#BE132D;}
</style>
<g>
	<g>
		<path class="st0" d="M45.28,23.83c-0.05-0.6-0.19-1.22-0.44-1.85c-0.85-2.19-2.65-3.91-4.67-5.11c-1.72-1.02-3.61-1.7-5.5-2.32
			c-1.57-0.52-3.15-1.5-4.57-2.37c-3.1-1.89-5.87-4.31-8.2-7.09c-0.26-0.31-0.51-0.62-0.75-0.93c-1.12-1.44-2.24-3.76-4.22-4.12
			c-1.35-0.25-2.8,0.69-3.13,2.02c-0.23,0.93,0.05,1.93,0.55,2.74c0.99,1.62,2.46,3.18,3.73,4.6c1.33,1.48,2.76,2.87,4.28,4.14
			c3.05,2.55,6.46,4.68,10.1,6.27c2.3,1.01,5.88,1.2,6.16,4.4c0.16,1.89-1.15,3.59-2.61,4.78c-1.12,0.91-2.37,1.66-3.44,2.63
			c-1.01,0.91-1.96,1.95-2.81,3.01c-1.78,2.23-2.98,4.93-2.99,7.81c0,0.95,0.13,1.95,0.66,2.74c0.53,0.79,1.54,1.33,2.46,1.07
			c0.75-0.22,1.27-0.89,1.65-1.57c0.42-0.77,0.72-1.6,0.96-2.45c0.22-0.79,0.3-1.68,0.6-2.43c0.6-1.47,1.85-2.62,2.99-3.68
			c1.45-1.35,3.04-2.54,4.51-3.86C42.92,30.2,45.57,27.18,45.28,23.83z"/>
		<g transform="matrix(1,0,0,1,-8.08709,7.87463)">
			<path class="st0" d="M39.91,10.26c-0.17,0.17-0.4,0.33-0.65,0.51c-1.55,1.14-3.11,2.27-4.68,3.38c-3.14,2.23-6.32,4.4-9.53,6.53
				c-3.02,2-6.07,3.94-9.15,5.85c-1.26,0.78-2.59,1.57-4.06,1.68c-1.89,0.14-3.64-1.26-3.75-3.19c-0.06-1.11,0.21-1.79,0.96-2.62
				c0.78-0.86,1.74-1.55,2.77-2.09c1.55-0.82,3.23-1.36,4.86-1.99c6.44-2.51,12.22-6.71,16.59-12.07c0.43-0.52,0.87-1.08,1.5-1.33
				c0.81-0.32,1.37,0.19,2.01,0.61c0.81,0.54,1.59,1.08,2.28,1.78c0.55,0.56,1.04,1.21,1.15,2.02
				C40.27,9.75,40.14,10.02,39.91,10.26z"/>
		</g>
		<g transform="matrix(1,0,0,1,-8.08709,7.87463)">
			<path class="st0" d="M38.13,36.23c0.56,0.13,1.09,0.43,1.46,0.9c0.72,0.91,0.71,1.93,0.69,3.19c-0.06,5.4-0.95,10.75-3.68,15.45
				c-1.22,2.1-2.77,3.98-4.33,5.84c-3.23,3.85-7.65,6.49-11.85,9.25c-0.89,0.59-1.89,1.2-2.94,1.04c-1.31-0.2-2.19-1.62-2.1-2.94
				c0.09-1.32,0.95-2.48,1.99-3.3c1.04-0.82,2.26-1.36,3.43-1.98c4.15-2.21,7.69-5.55,10.14-9.57c2.45-4.02,3.68-8.68,3.75-13.39
				c0.02-1.3,0.04-3.32,1.3-4.12C36.63,36.19,37.42,36.07,38.13,36.23z"/>
		</g>
		<g transform="matrix(1,0,0,1,-8.08709,7.87463)">
			<path class="st0" d="M39.48,42.55c0.36,0.61,0.49,1.39,0.51,2.09c0.02,0.93-0.14,1.85-0.21,2.78
				c-0.53,6.27,2.85,12.77,8.68,15.45c0.96,0.44,1.96,0.78,2.88,1.29c0.92,0.51,1.77,1.22,2.19,2.19c0.42,0.96,0.33,2.2-0.43,2.93
				c-0.53,0.51-1.31,0.71-2.05,0.67c-0.74-0.04-1.45-0.28-2.14-0.55c-5.43-2.14-10.27-5.93-12.64-11.36
				c-1.65-3.78-2.04-9.74-1.17-13.77c0.19-0.86,0.4-1.7,1.12-2.29c0.68-0.55,1.64-0.68,2.42-0.26C39,41.92,39.28,42.21,39.48,42.55z
				"/>
		</g>
		<g transform="matrix(1,0,0,1,-8.08709,7.87463)">
			<path class="st0" d="M50.22,53.22c-0.06-1.84-0.12-3.7-0.64-5.46c-1.05-3.5-4.25-5.34-7.27-7c-1.78-0.98-3.61-1.87-5.3-3.01
				c-0.36-0.24-0.72-0.5-1-0.84c-0.48-0.58-0.6-1.4-0.32-2.1c0.28-0.69,0.91-1.19,1.6-1.46c1.01-0.4,2.19-0.34,3.17,0.13
				c0.53,0.25,1.02,0.57,1.56,0.82c0.59,0.28,1.19,0.52,1.8,0.75c0.52,0.2,1.05,0.38,1.59,0.56c2.15,0.72,4.37,1.59,6.18,2.61
				c1.96,1.1,3.5,2.73,4.36,4.79c1.76,4.24,1.43,9.07,1.35,13.56c-0.19,10.81,0.07,21.81,1.15,32.56c0.71,7.07,2.47,13.95,3.3,20.96
				c0.23,1.92,0.51,4.18,0.36,6.1c-0.08,1.11-0.47,2.25-1.28,3.02c-2.18,2.08-5.29,0.28-6.56-1.86c-2.61-4.4-2.42-9.31-2.57-14.24
				c-0.18-6.1-0.37-12.2-0.55-18.3"/>
		</g>
		<path class="st0" d="M31.21,40.77c-0.54-0.39-1.23-0.59-1.93-0.5c-1.37,0.17-2.17,1.36-3.3,1.78c-1.62,0.61-3.11,1.07-4.76,1.56
			c-2.52,0.75-5.1,1.33-7.46,2.48c-3.19,1.55-5.37,4.35-6.75,7.55c-1.48,3.41-2.05,7.15-2.25,10.84c-0.27,4.96,0.13,9.91,0.17,14.87
			c0.06,7.25-0.38,14.51-1.31,21.7c-0.47,3.65-1.07,7.29-1.8,10.89c-0.69,3.44-1.96,6.67-1.11,10.16c0.38,1.58,1.35,3.09,2.83,3.76
			c1.48,0.67,2.58,0.39,3.94-0.49c3.74-2.41,3.94-7.98,4.24-11.96c0.61-8.25,1.44-16.51,1.8-24.77c0.07-1.55,0.11-3.1,0.14-4.65
			c0.08-5.14-0.06-10.29-0.43-15.42c-0.33-4.52-0.82-8.97,1.21-13.22c0.9-1.89,2.32-3.56,4.1-4.68c1.87-1.17,3.43-1.58,5.5-2.17
			c1.74-0.5,3.54-0.85,5.17-1.66c1.58-0.78,3.49-2.39,3.11-4.36C32.18,41.78,31.77,41.17,31.21,40.77z"/>
		<g transform="matrix(1,0,0,1,-8.08709,7.87463)">
			<path class="st0" d="M35.67,70.3c0.54,0.15,1.05,0.43,1.4,0.78c0.81,0.82,1.08,2.06,0.95,3.21s-0.59,2.22-1.07,3.27
				c-3.35,7.35-7.72,14.51-14.24,19.28c-0.86,0.63-1.77,1.22-2.79,1.54c-1.02,0.32-2.17,0.33-3.12-0.17
				c-0.94-0.5-1.61-1.57-1.45-2.63c0.22-1.43,1.71-2.23,2.96-2.95c2.47-1.42,4.63-3.33,6.47-5.5c1.86-2.2,3.39-4.66,4.68-7.24
				c0.68-1.36,1.26-2.74,1.79-4.16c0.41-1.1,0.91-2.16,1.35-3.25c0.35-0.85,0.49-1.84,1.47-2.2C34.56,70.12,35.13,70.14,35.67,70.3z
				"/>
		</g>
		<g transform="matrix(1,0,0,1,-8.08709,7.87463)">
			<path class="st0" d="M36.07,69.24c1.57,0.31,2.87,2.18,3.61,3.56c0.73,1.37,1.24,2.84,1.84,4.27c2.29,5.54,5.88,11.7,10.85,15.19
				c1.24,0.87,2.63,1.63,3.5,2.89c0.86,1.25,0.96,3.22-0.28,4.11c-0.64,0.46-1.5,0.53-2.27,0.35s-1.46-0.59-2.13-1.02
				c-4.37-2.85-7.85-6.91-10.62-11.32c-1.53-2.43-2.86-4.98-4.1-7.56c-0.96-2-1.89-4.02-2.85-6.03c-0.29-0.61-0.59-1.25-0.59-1.93
				c0-0.73,0.37-1.45,0.94-1.91C34.69,69.25,35.4,69.1,36.07,69.24z"/>
		</g>
	</g>
	<g>
		<g transform="matrix(1,0,0,1,-8.08709,7.87463)">
			<path class="st1" d="M80.33-6.06c0.74,0.11,1.43,0.51,1.87,1.2c0.52,0.81,0.58,1.85,0.44,2.8c-0.25,1.81-0.82,3.47-0.55,5.32
				c0.26,1.75,1.05,3.43,2.28,4.7c1.45,1.5,3.41,2.41,5.42,2.92c1.62,0.41,3.3,0.58,4.95,0.86c1.87,0.31,3.8,0.84,5.59,1.61
				c0.67,0.28,1.29,0.6,1.89,1.02c1.81,1.29,3.27,3.13,3.9,5.26c0.42,1.41,0.41,2.92,0.05,4.35c-0.57,2.2-2.03,3.97-3.53,5.63
				c-2.45,2.72-5.5,4.75-8.16,7.25c-1.14,1.07-2.24,2.19-3.3,3.35c-0.71,0.77-1.41,1.58-2.32,2.12c-0.96,0.57-2.19,0.59-3.11-0.09
				c-0.9-0.66-1.33-1.9-1.03-2.98c0.26-0.92,0.96-1.63,1.64-2.3c1.96-1.93,3.86-3.97,5.94-5.78c2.05-1.79,4.2-3.48,6.18-5.35
				c1.09-1.03,2.23-2.24,2.29-3.74c0.05-1.42-0.94-2.71-2.17-3.43c-2.52-1.48-5.84-1.44-8.63-2.09c-2.76-0.64-5.77-1.3-8.05-3.04
				c-2.03-1.55-3.59-3.71-4.54-6.07c-0.62-1.56-0.97-3.23-1.03-4.9c-0.07-1.74,0.35-3.36,0.55-5.07c0.09-0.78,0.17-1.59,0.57-2.27
				C78.09-5.79,79.26-6.23,80.33-6.06z"/>
		</g>
		<g transform="matrix(1,0,0,1,-8.08709,7.87463)">
			<path class="st1" d="M87.22,11.03c1.13,0.12,2.28,0.91,2.83,1.78c0.54,0.86,0.47,2.35-0.54,3.92c-0.85,1.33-1.99,2.56-3.16,3.58
				c-1.36,1.19-2.8,2.27-4.18,3.44c-3.54,3-6.96,6.06-10.95,8.48c-1.27,0.77-2.62,1.52-4.16,1.4c-1.28-0.1-2.56-0.94-2.89-2.18
				c-0.4-1.52,0.66-3.02,1.75-4.15c1.81-1.9,3.88-3.55,6.14-4.9c2.56-1.53,5.35-2.65,7.84-4.29c2.1-1.38,3.97-3.18,5.01-5.5
				c0.24-0.54,0.48-1.14,1.06-1.4C86.37,11.03,86.79,10.98,87.22,11.03z"/>
		</g>
	</g>
	<g>
		<path class="st0" d="M102.98,53.68c-0.01-0.63-0.2-1.23-0.73-1.76c-0.83-0.83-2.16-1.12-3.26-0.76c-2.21,0.72-2.89,3.38-3.51,5.35
			c-0.78,2.47-1.33,5.04-2.67,7.28c-1.07,1.77-2.58,3.34-4.46,4.24c-2.12,1.02-4.82,1.15-7.13,1.06c-3.22-0.12-6.42-0.96-9.28-2.45
			c-1.81-0.94-3.53-2.01-4.69-3.73c-1.08-1.6-1.65-3.56-1.53-5.49c0.05-0.81,0.21-1.61,0.19-2.42c-0.04-1.65-1.24-3.18-3.01-3.07
			c-0.9,0.06-1.7,0.57-2.17,1.33c-0.51,0.81-0.37,1.57-0.5,2.44c-0.36,2.49-0.15,5.01,0.74,7.37c2.26,5.99,8.81,9.97,14.9,11.01
			c3.51,0.6,7.14,0.79,10.66,0.17c3.28-0.58,6.9-1.9,9.27-4.3c2.41-2.45,4.09-5.53,5.27-8.73c0.6-1.62,1.07-3.29,1.45-4.98
			C102.71,55.38,102.99,54.5,102.98,53.68z"/>
		<g transform="matrix(1,0,0,1,-8.08709,7.87463)">
			<path class="st0" d="M87.17,44.13c1.72,0.12,3.32,2.05,4.19,3.32c1.84,2.67,2.54,5.75,2.82,8.92c0.3,3.45,0.04,6.89,0.06,10.34
				c0.03,3.54,0.22,7.07,0.56,10.59c0.41,4.16,0.58,8.36,0.89,12.54c0.36,4.74,0.63,9.5,0.45,14.26c-0.15,3.9-0.05,8.37-2.21,11.81
				c-0.51,0.8-1.14,1.55-1.96,2.03s-1.84,0.66-2.74,0.35c-1.61-0.57-2.29-2.45-2.62-4.13c-1.1-5.52-0.31-11.09,0.03-16.65
				c0.36-5.87,0.72-11.74,0.96-17.62c0.26-6.4,0.56-12.83,0.07-19.23c-0.24-3.14-0.39-6.73-2.02-9.51
				c-0.44-0.75-0.97-1.46-1.26-2.29c-0.5-1.44-0.11-3.38,1.2-4.28C86.11,44.22,86.64,44.09,87.17,44.13z"/>
		</g>
		<g transform="matrix(1,0,0,1,-8.08709,7.87463)">
			<path class="st0" d="M66.29,76.31c0.8,0.14,1.58,0.29,2.17,0.37c3.57,0.49,7.18,0.59,10.78,0.64c2.17,0.03,4.33,0.02,6.5-0.01
				c3.71-0.04,7.42,0.17,11.14-0.07c2.16-0.14,4.31-0.37,6.45-0.7c3.28-0.5,6.36-1.52,9.73-1.4c1.27,0.05,2.65,0.26,3.52,1.19
				c0.92,0.98,1,2.58,0.34,3.75c-0.79,1.38-2.28,2.04-3.8,2.19c-2,0.2-4.02,0.29-6.03,0.44c-4.02,0.29-8.03,0.58-12.05,0.88
				c-2.23,0-4.52,0.33-6.75,0.49c-5.46,0.4-10.98,1.11-16.46,0.58c-2.92-0.28-5.85-1.02-8.36-2.55c-0.92-0.56-1.81-1.25-2.28-2.22
				c-0.56-1.15-0.31-2.61,0.79-3.34C63.19,75.76,64.96,76.08,66.29,76.31z"/>
		</g>
	</g>
</g>
</svg>
