<svg xmlns="http://www.w3.org/2000/svg" width="20.588" height="19.351" viewBox="0 0 20.588 19.351">
  <path id="Path_6" data-name="Path 6" d="M0-9.529v4.575A1.147,1.147,0,0,0,1.144-3.81H4.575L8.338-.047a1.147,1.147,0,0,0,1.956-.812V-13.635a1.147,1.147,0,0,0-1.956-.812L4.575-10.672H1.144A1.147,1.147,0,0,0,0-9.529ZM15.441-7.241a5.147,5.147,0,0,0-2.859-4.609v9.207A5.117,5.117,0,0,0,15.441-7.241Zm-2.859-8.635v.229a1.064,1.064,0,0,0,.686.972A8.011,8.011,0,0,1,18.3-7.241,8.011,8.011,0,0,1,13.268.193a1.047,1.047,0,0,0-.686.972v.229a1.031,1.031,0,0,0,1.384.972,10.27,10.27,0,0,0,6.622-9.608,10.27,10.27,0,0,0-6.622-9.608A1.026,1.026,0,0,0,12.581-15.876Z" transform="translate(0 16.918)" fill="#313544"/>
</svg>
