<svg xmlns="http://www.w3.org/2000/svg" width="27.983" height="26.301" viewBox="0 0 27.983 26.301">
  <g id="Group_32" data-name="Group 32" transform="translate(0 16.918)">
    <path id="Path_6" data-name="Path 6" d="M0-6.874V-.656A1.559,1.559,0,0,0,1.555.9H6.218l5.115,5.115a1.559,1.559,0,0,0,2.658-1.1V-12.455a1.559,1.559,0,0,0-2.658-1.1L6.218-8.429H1.555A1.559,1.559,0,0,0,0-6.874ZM20.987-3.765A7,7,0,0,0,17.1-10.03V2.485A6.955,6.955,0,0,0,20.987-3.765ZM17.1-15.5v.311a1.446,1.446,0,0,0,.933,1.321,10.888,10.888,0,0,1,6.84,10.1,10.888,10.888,0,0,1-6.84,10.1A1.423,1.423,0,0,0,17.1,7.661v.311a1.4,1.4,0,0,0,1.881,1.321,13.959,13.959,0,0,0,9-13.059,13.959,13.959,0,0,0-9-13.059A1.4,1.4,0,0,0,17.1-15.5Z" transform="translate(0 0)" fill="#313544"/>
  </g>
</svg>
