<?xml version="1.0" encoding="utf-8"?>
<!-- Generator: Adobe Illustrator 23.0.1, SVG Export Plug-In . SVG Version: 6.00 Build 0)  -->
<svg version="1.1" id="图层_1" xmlns="http://www.w3.org/2000/svg" xmlns:xlink="http://www.w3.org/1999/xlink" x="0px" y="0px"
	 viewBox="0 0 200 200" style="enable-background:new 0 0 200 200;" xml:space="preserve">
<style type="text/css">
	.st0{fill:#0E2496;}
	.st1{fill:#107534;}
</style>
<g>
	<path class="st0" d="M16.12,130.49c-0.55-0.53-1.09-1.35-1.63-2.44c-2.17-3.25-3.53-5.41-4.07-6.5c-0.55-1.08-0.81-1.89-0.81-2.44
		c0.53-0.53,1.35-0.81,2.44-0.81c3.25,1.09,7.58,1.63,13.01,1.63c26.55-1.08,50.41-2.71,71.55-4.88c0-2.71,0-4.88,0-6.5
		c0-5.41-1.91-10.29-5.69-14.63c-1.09-0.53-1.36-1.08-0.81-1.63c0-0.53,0.81-0.81,2.44-0.81c2.16,1.09,4.88,1.63,8.13,1.63
		c5.41-6.5,9.21-12.73,11.38-18.7c0.53-1.63,0-2.16-1.63-1.63c-16.26,1.09-31.44,3.53-45.53,7.32c-2.72,1.09-4.61,0.28-5.69-2.44
		c-0.55-0.53-1.36-1.63-2.44-3.25c-1.09-1.63-1.91-2.97-2.44-4.07c-0.55-1.08-0.55-1.89,0-2.44c0.53-0.53,1.63-0.53,3.25,0
		c20.05,0.55,40.92-1.89,62.6-7.32c1.63-1.08,2.97-0.81,4.07,0.81c1.08,0.55,2.71,2.17,4.88,4.88l0.81,0.81
		c1.63,1.63,1.89,2.99,0.81,4.07c-4.88,7.05-12.48,15.73-22.77,26.02c1.63,1.09,2.16,2.44,1.63,4.07c0,4.34,0,8.68,0,13.01
		c8.13-0.53,18.97-1.63,32.52-3.25c6.5-1.08,10.84-1.63,13.01-1.63c10.29-2.16,16.79-4.07,19.51-5.69c2.71-1.08,5.15-0.81,7.32,0.81
		c3.25,4.34,5.69,8.13,7.32,11.38c1.08,2.17,1.35,3.53,0.81,4.07c0,0.55-1.36,0.81-4.07,0.81c-4.34-0.53-14.1-0.81-29.27-0.81
		c-11.93,0-27.38,0.81-46.34,2.44c0,15.73,0,30.08,0,43.09c-0.55,4.34-0.81,7.85-0.81,10.57c-3.25,9.76-7.32,17.07-12.2,21.95
		c-2.17,2.71-3.8,2.71-4.88,0c-3.25-7.6-7.6-14.63-13.01-21.14c-1.63-1.63-2.44-2.72-2.44-3.25c0.53-0.55,1.89-0.55,4.07,0
		c2.16,0,4.6,0,7.32,0c4.88-0.55,7.04-2.44,6.5-5.69c1.08-7.04,1.63-21.67,1.63-43.9c-39.03,3.25-63.7,5.97-73.99,8.13
		C19.91,132.66,17.75,132.11,16.12,130.49z"/>
	<path class="st1" d="M43.77,38.61l0.81,0.81c7.04-0.53,18.42-1.63,34.15-3.25c7.58-0.53,13.28-1.08,17.07-1.63
		C91.46,19.91,85.23,9.34,77.1,2.84c-2.17-1.08-2.99-1.89-2.44-2.44c0-0.53,1.08-0.53,3.25,0c7.04,1.09,15.17,2.99,24.39,5.69
		c3.25,1.09,4.6,4.34,4.07,9.76c0,6.5,0,12.48,0,17.89c5.41-0.53,12.73-1.35,21.95-2.44c3.25-0.53,5.69-0.81,7.32-0.81
		c9.21-1.63,14.9-2.97,17.07-4.07c3.25-1.63,5.96-1.08,8.13,1.63c3.25,4.88,7.04,11.12,11.38,18.7c1.63,4.34,0.81,6.5-2.44,6.5
		c-4.88,0-13.29,0.55-25.2,1.63c-1.63,0-2.44-0.27-2.44-0.81c0-0.53,0.27-1.63,0.81-3.25c2.71-2.16,4.33-4.88,4.88-8.13
		c1.08-3.25-0.55-4.6-4.88-4.07c-1.09,0-2.99,0-5.69,0c-41.2,3.25-71.83,6.5-91.87,9.76c-3.25,21.69-7.05,37.13-11.38,46.34
		c-1.63,3.25-3.8,3.53-6.5,0.81c-2.17-2.71-3.8-5.15-4.88-7.32c-1.09-2.16-0.81-4.07,0.81-5.69C33.2,63,35.64,45.4,30.76,29.67
		c-1.63-3.79-1.09-4.33,1.63-1.63c1.08,1.09,2.97,2.72,5.69,4.88C41.33,35.64,43.22,37.53,43.77,38.61z"/>
</g>
</svg>
